<svg width="1024" height="1024" viewBox="0 0 1024 1024" fill="none" xmlns="http://www.w3.org/2000/svg">
  <defs>
    <linearGradient id="bg" x1="120" y1="80" x2="920" y2="944" gradientUnits="userSpaceOnUse">
      <stop stop-color="#FFFFFF"/>
      <stop offset="1" stop-color="#F1F1F1"/>
    </linearGradient>
    <linearGradient id="red" x1="182" y1="120" x2="693" y2="666" gradientUnits="userSpaceOnUse">
      <stop stop-color="#FF5A63"/>
      <stop offset="0.55" stop-color="#E02433"/>
      <stop offset="1" stop-color="#9B0F1D"/>
    </linearGradient>
    <linearGradient id="redDark" x1="179" y1="127" x2="348" y2="361" gradientUnits="userSpaceOnUse">
      <stop stop-color="#B51221"/>
      <stop offset="1" stop-color="#7E0B16"/>
    </linearGradient>
    <linearGradient id="silver" x1="385" y1="159" x2="847" y2="677" gradientUnits="userSpaceOnUse">
      <stop stop-color="#FAFAFA"/>
      <stop offset="0.25" stop-color="#DADADA"/>
      <stop offset="0.6" stop-color="#A8A8A8"/>
      <stop offset="1" stop-color="#E9E9E9"/>
    </linearGradient>
    <linearGradient id="silverText" x1="300" y1="735" x2="819" y2="944" gradientUnits="userSpaceOnUse">
      <stop stop-color="#444444"/>
      <stop offset="0.45" stop-color="#808080"/>
      <stop offset="1" stop-color="#D5D5D5"/>
    </linearGradient>
    <filter id="shadow" x="38" y="108" width="873" height="672" filterUnits="userSpaceOnUse" color-interpolation-filters="sRGB">
      <feFlood flood-opacity="0" result="BackgroundImageFix"/>
      <feColorMatrix in="SourceAlpha" type="matrix" values="0 0 0 0 0 0 0 0 0 0 0 0 0 0 0 0 0 0 127 0" result="hardAlpha"/>
      <feOffset dy="18"/>
      <feGaussianBlur stdDeviation="18"/>
      <feColorMatrix type="matrix" values="0 0 0 0 0.18 0 0 0 0 0.18 0 0 0 0 0.18 0 0 0 0.18 0"/>
      <feBlend mode="normal" in2="BackgroundImageFix" result="effect1_dropShadow_1_2"/>
      <feBlend mode="normal" in="SourceGraphic" in2="effect1_dropShadow_1_2" result="shape"/>
    </filter>
    <filter id="textShadow" x="150" y="688" width="724" height="239" filterUnits="userSpaceOnUse" color-interpolation-filters="sRGB">
      <feFlood flood-opacity="0" result="BackgroundImageFix"/>
      <feColorMatrix in="SourceAlpha" type="matrix" values="0 0 0 0 0 0 0 0 0 0 0 0 0 0 0 0 0 0 127 0" result="hardAlpha"/>
      <feOffset dy="14"/>
      <feGaussianBlur stdDeviation="16"/>
      <feColorMatrix type="matrix" values="0 0 0 0 0.15 0 0 0 0 0.15 0 0 0 0 0.15 0 0 0 0.18 0"/>
      <feBlend mode="normal" in2="BackgroundImageFix" result="effect1_dropShadow_1_2"/>
      <feBlend mode="normal" in="SourceGraphic" in2="effect1_dropShadow_1_2" result="shape"/>
    </filter>
  </defs>

  <rect width="1024" height="1024" rx="220" fill="url(#bg)"/>

  <g filter="url(#shadow)">
    <path d="M182 160H704L636 229H334L260 356H468L391 432H214L122 675H38L168 347H133L182 160Z" fill="url(#red)"/>
    <path d="M182 160L226 202L178 347H133L182 160Z" fill="url(#redDark)"/>
    <path d="M420 214H804L717 305H333L420 214Z" fill="url(#silver)"/>
    <path d="M539 512L828 223L911 306L621 595L539 512Z" fill="url(#silver)"/>
    <path d="M487 678L777 389L860 472V760H730V615H641V678H487Z" fill="url(#red)"/>
    <rect x="675" y="475" width="84" height="204" rx="14" fill="white"/>
    <rect x="615" y="535" width="204" height="84" rx="14" fill="white"/>
  </g>

  <g filter="url(#textShadow)">
    <text
      x="512"
      y="876"
      text-anchor="middle"
      fill="url(#silverText)"
      font-family="Arial, Helvetica, sans-serif"
      font-size="168"
      font-weight="900"
      letter-spacing="-10"
    >
      FA-650
    </text>
  </g>
</svg>
